<?xml version="1.0" encoding="utf-8"?>
<!-- Generator: Adobe Adobe Illustrator 24.2.0, SVG Export Plug-In . SVG Version: 6.00 Build 0)  -->
<svg version="1.1" xmlns="http://www.w3.org/2000/svg" xmlns:xlink="http://www.w3.org/1999/xlink" x="0px" y="0px" width="1024px"
	 height="768px" viewBox="0 0 1024 768" style="enable-background:new 0 0 1024 768;" xml:space="preserve">
<style type="text/css">
	.st0{fill:#FFFFFF;}
	.st1{display:none;opacity:0.2588;fill:#FCFFFE;stroke:#000000;stroke-miterlimit:10;}
	.st2{fill:#213547;}
</style>
<g id="Layer_2">
</g>
<g id="Layer_1">
	<polygon class="st0" points="751.88,255.14 635.81,284.3 636.12,113.75 752.41,70.55 	"/>
	<polygon class="st1" points="501.63,72.21 216.07,143.79 216.07,359.74 285.16,377.13 359.84,360.8 285.69,504.36 501.74,449.85 
		719.86,504.36 791.25,485.94 792.08,144.01 	"/>
	<polyline class="st2" points="155.62,720.66 39.26,691.57 154.8,458.4 272.21,487.53 	"/>
	<polygon class="st0" points="635.62,487.93 751.98,458.84 751.98,633.39 635.73,666.13 	"/>
	<ellipse class="st0" cx="931.32" cy="341.54" rx="2.91" ry="1.36"/>
	<ellipse class="st0" cx="912.01" cy="383.61" rx="1.88" ry="0.94"/>
	<polygon class="st2" points="970.16,124.3 839.33,91.59 722.71,134.89 853.8,167.94 	"/>
	<polygon class="st2" points="751.96,313.3 635.65,284.3 751.88,255.14 	"/>
	<path class="st2" d="M504.21,80.13l131.44,33.31l117.14-42.79L504.44,9c0,0-195.12,43.2-339.49,82.36
		C65.39,118.36,36.72,153.9,36.72,240.13c0,19.68-2.92,53.68,0.4,100.78c3.93,55.78,16.1,108.79,75.3,124.59
		c148.89,39.74,154.84,19.66,154.84,19.66L504.21,80.13"/>
	<path class="st2" d="M272.21,515.77l-0.45,118l116.58,28.71c0,0-0.71-113.82-0.71-116.95
		C387.64,545.53,272.09,515.93,272.21,515.77z"/>
	<polygon class="st0" points="970.16,124.3 970.16,691.57 853.8,720.66 853.8,167.94 	"/>
	<path class="st2" d="M504.29,633.3l131.18,32.78l-0.12-178.38l87.38,22.65l0,177.54l131.06,32.78v-553.3l-131.25-33.08l0.18,171.34
		l-87.18-21.96l-0.16-170.86L504.25,79.96C504.25,79.96,504.5,634.78,504.29,633.3z"/>
	<path class="st0" d="M155.62,269.75v101.82c0.12,61.32,57.15,130.17,116.75,115.77l0,0L155.62,720.66l174.54-43.64l57.94-131.08
		l0.24,116.54l116.36-29.09l-0.5-553.26l-194.02,48.36C218.93,151.24,155.62,145.57,155.62,269.75z"/>
	<path class="st2" d="M301.09,363.29l-0.26-61.56c-0.07-15.26,10.29-28.6,25.08-32.33l61.68-15.53l0.05,116.56l-57.42,15.19
		C315.54,389.5,301.15,378.47,301.09,363.29z"/>
	<path class="st2" d="M387.64,370.43l-86.98-21.74l0.15,12.39c0.2,16.36,15.74,28.17,31.55,23.98L387.64,370.43z"/>
</g>
</svg>
