<?xml version="1.0" encoding="utf-8"?>
<!-- Generator: Adobe Adobe Illustrator 24.2.0, SVG Export Plug-In . SVG Version: 6.00 Build 0)  -->
<svg version="1.1" xmlns="http://www.w3.org/2000/svg" xmlns:xlink="http://www.w3.org/1999/xlink" x="0px" y="0px" width="1024px"
	 height="768px" viewBox="0 0 1024 768" style="enable-background:new 0 0 1024 768;" xml:space="preserve">
<style type="text/css">
	.st0{display:none;opacity:0.2588;fill:#FCFFFE;stroke:#000000;stroke-miterlimit:10;}
	.st1{fill:#FFFFFF;}
	.st2{fill:#FCFFFE;}
</style>
<g id="Layer_2">
	<path d="M38.78,722.57V45.41c0-22.09,17.91-40,40-40h866.45c22.09,0,40,17.91,40,40v677.16c0,22.09-17.91,40-40,40H78.78
		C56.68,762.57,38.78,744.66,38.78,722.57z"/>
</g>
<g id="Layer_1">
	<polygon points="713.04,301.13 618.63,324.84 618.88,186.13 713.47,150.99 	"/>
	<polygon class="st0" points="501.63,72.21 216.07,143.79 216.07,359.74 285.16,377.13 359.84,360.8 285.69,504.36 501.74,449.85 
		719.86,504.36 791.25,485.94 792.08,144.01 	"/>
	<polyline class="st1" points="228.07,679.76 133.42,656.1 227.4,466.44 322.9,490.14 	"/>
	<polygon points="618.48,490.47 713.12,466.81 713.12,608.77 618.57,635.41 	"/>
	<polygon class="st2" points="890.58,194.7 784.17,168.1 689.31,203.32 795.93,230.19 	"/>
	<polygon class="st2" points="713.1,348.43 618.5,324.84 713.04,301.13 	"/>
	<path class="st2" d="M511.59,158.78l106.91,27.09l95.28-34.8l-202-50.14c0,0-158.7,35.14-276.12,66.99
		c-80.98,21.97-104.3,50.87-104.3,121.01c0,16.01-2.37,43.66,0.33,81.97c3.2,45.37,13.09,88.48,61.25,101.33
		c121.1,32.32,125.94,15.99,125.94,15.99L511.59,158.78"/>
	<path class="st2" d="M322.9,513.11l-0.36,95.98l94.82,23.35c0,0-0.58-92.58-0.58-95.12C416.78,537.31,322.79,513.24,322.9,513.11z"
		/>
	<polygon points="890.58,194.7 890.58,656.1 795.93,679.76 795.93,230.19 	"/>
	<path class="st2" d="M512,608.77l106.57,26.63l-0.09-144.94l70.98,18.4l0,144.25l106.47,26.63V230.19l-106.63-26.88l0.15,139.21
		l-70.82-17.84l-0.13-138.82l-106.91-27.09C511.59,158.78,512.17,609.98,512,608.77z"/>
	<path d="M228.07,313.01v82.81c0.1,49.87,46.48,105.87,94.96,94.16l0,0l-94.96,189.77l141.97-35.49l47.13-106.62l0.19,94.79
		L512,608.77l-0.41-450l-157.8,39.34C279.56,216.62,228.07,212,228.07,313.01z"/>
	<path class="st2" d="M346.38,389.09l-0.21-50.07c-0.05-12.41,8.37-23.26,20.4-26.29l50.17-12.63l0.04,94.8l-46.7,12.36
		C358.14,410.41,346.43,401.44,346.38,389.09z"/>
	<path class="st2" d="M416.78,394.89l-70.74-17.69l0.12,10.08c0.16,13.31,12.8,22.91,25.66,19.51L416.78,394.89z"/>
</g>
</svg>
