<?xml version="1.0" encoding="utf-8"?>
<!-- Generator: Adobe Adobe Illustrator 24.2.0, SVG Export Plug-In . SVG Version: 6.00 Build 0)  -->
<svg version="1.1" xmlns="http://www.w3.org/2000/svg" xmlns:xlink="http://www.w3.org/1999/xlink" x="0px" y="0px" width="1024px"
	 height="768px" viewBox="0 0 1024 768" style="enable-background:new 0 0 1024 768;" xml:space="preserve">
<style type="text/css">
	.st0{display:none;opacity:0.2588;fill:#FCFFFE;stroke:#000000;stroke-miterlimit:10;}
	.st1{fill:#FFFFFF;}
	.st2{fill:#FCFFFE;}
</style>
<g id="Layer_2">
</g>
<g id="Layer_1">
	<polygon points="757.72,252.57 638.93,282.42 639.25,107.87 758.26,63.66 	"/>
	<polygon class="st0" points="501.63,72.21 216.07,143.79 216.07,359.74 285.16,377.13 359.84,360.8 285.69,504.36 501.74,449.85 
		719.86,504.36 791.25,485.94 792.08,144.01 	"/>
	<polyline class="st1" points="147.48,729 28.39,699.23 146.64,460.59 266.81,490.41 	"/>
	<polygon points="638.73,490.82 757.82,461.05 757.82,639.68 638.85,673.19 	"/>
	<polygon class="st2" points="981.12,118.66 847.22,85.19 727.86,129.5 862.03,163.32 	"/>
	<polygon class="st2" points="757.8,312.09 638.76,282.42 757.72,252.57 	"/>
	<path class="st2" d="M504.24,73.45l134.52,34.09l119.89-43.79L504.48,0.66c0,0-199.69,44.21-347.45,84.29
		C55.13,112.59,25.79,148.96,25.79,237.21c0,20.14-2.98,54.94,0.41,103.15c4.02,57.09,16.47,111.34,77.07,127.51
		c152.38,40.67,158.47,20.12,158.47,20.12L504.24,73.45"/>
	<path class="st2" d="M266.81,519.31l-0.46,120.77l119.31,29.38c0,0-0.72-116.49-0.72-119.69
		C384.94,549.76,266.68,519.47,266.81,519.31z"/>
	<polygon points="981.12,118.66 981.12,699.23 862.03,729 862.03,163.32 	"/>
	<path class="st2" d="M504.75,639.68l134.1,33.51l-0.12-182.38l89.32,23.16l0,181.51L862.03,729V163.32L727.86,129.5l0.19,175.17
		l-89.12-22.45l-0.17-174.68L504.71,73.96C504.71,73.96,504.96,641.2,504.75,639.68z"/>
	<path d="M147.48,267.52v104.2c0.12,62.76,58.49,133.22,119.49,118.48l0,0L147.48,729l178.64-44.66l59.3-134.16l0.24,119.27
		l119.09-29.77l-0.51-566.23l-198.56,49.5C212.27,146.24,147.48,140.43,147.48,267.52z"/>
	<path class="st2" d="M296.36,363.25l-0.27-63.01c-0.07-15.62,10.53-29.27,25.67-33.08l63.13-15.9l0.05,119.29l-58.77,15.55
		C311.15,390.08,296.42,378.79,296.36,363.25z"/>
	<path class="st2" d="M384.94,370.56l-89.02-22.25l0.16,12.68c0.21,16.74,16.11,28.83,32.29,24.54L384.94,370.56z"/>
</g>
</svg>
